<svg id="Layer_1" style="enable-background:new 0 0 117 50" version="1.1" viewBox="0 0 117 50" x="0px" xml:space="preserve" xmlns="http://www.w3.org/2000/svg" xmlns:xlink="http://www.w3.org/1999/xlink" y="0px"><style type="text/css">.st0{fill-rule:evenodd;clip-rule:evenodd;fill:#fff}</style><path class="st0" d="M72.6,5.6c-2.8-2.9-5.9-4.4-9-4.4l0,0c-2.9,0-3.6,1.2-5.2,3.7l0,0c-1.5,2.3-3.5,5.4-8,8.7
	c-1.3,1-2.6,1.8-3.9,2.5v22.3h-3.9V18.4c-2.2,1.4-3.8,2.7-4.9,4.5c0.1,0.2,0.3,0.4,0.4,0.6c0.8,1.5,1.2,3.2,1.2,5.2
	c0,0.3,0,0.5,0,0.8h-2.8c0,0.7,0.1,1.4,0.2,2.1h2.4c-0.2,0.8-0.5,1.6-0.9,2.3c-0.2,0.4-0.4,0.8-0.7,1.1c1,3,2.8,5.7,5.2,7.9
	c4.1,3.7,9.9,5.8,15.9,5.8c6,0,11.6-2.4,15.8-6.7c4.1-4.3,6.3-9.9,6.3-15.8c0-1.3-0.1-2.7-0.3-4c-1.3,0.1-2.4,0.6-3.3,1.5
	c-0.9,1-1.4,2.5-1.4,4.4v10.2h-3.9V19.3h3.9v3.5c0.7-1.4,2.1-2.8,4.1-3.5C78.5,14,75.9,9,72.6,5.6z M81.8,26.3c0-1.3-0.1-2.7-0.3-4
	c1.2,0.1,2.1,0.6,2.8,1.4c0.9,0.9,1.3,2.3,1.3,4v10.7h3.9V27.2c0-2.7-0.7-4.7-2-6.2l0,0c-1.3-1.4-3.1-2.2-5.3-2.2
	c-0.5,0-0.9,0-1.4,0.1C78.5,9,71.6,0,63.6,0v0c-3.5,0-4.6,1.7-6.2,4.2c-1.4,2.3-3.3,5.2-7.7,8.4c-1.1,0.8-2.2,1.5-3.2,2.1v-2h-3.9
	v4.4c-2.4,1.5-4.4,2.9-5.6,4.9c-0.6-0.7-1.3-1.3-2.2-1.7c-1.4-0.8-3-1.2-4.8-1.2c-1.8,0-3.4,0.4-4.8,1.2c-1.4,0.8-2.5,1.9-3.3,3.4
	c-0.8,1.5-1.2,3.2-1.2,5.2c0,2,0.4,3.8,1.2,5.2c0.8,1.5,1.9,2.6,3.3,3.4c1.4,0.8,3,1.2,4.8,1.2c1.8,0,3.4-0.4,4.8-1.2
	c0.6-0.4,1.2-0.8,1.7-1.3c3.1,8.2,11.3,13.9,22,13.9C72.1,50,81.7,39,81.8,26.3z M35.4,31.7c-0.1-0.7-0.1-1.4-0.2-2.1H24.5
	c0.1,2,0.6,3.4,1.6,4.4c1,0.9,2.4,1.4,3.9,1.4s2.9-0.5,3.9-1.4c0.6-0.6,1-1.3,1.3-2.3H35.4z M35.3,26.8L35.3,26.8l-10.8,0
	c0.2-1.4,0.7-2.5,1.6-3.3c1-0.9,2.3-1.4,3.8-1.4c1.5,0,2.8,0.5,3.8,1.4C34.6,24.4,35.1,25.4,35.3,26.8z M18.4,26.3
	c-0.4-2.2-1.4-4-3-5.3v0c-1.6-1.3-3.6-2-6-2c-1.8,0-3.4,0.4-4.8,1.2c-1.4,0.8-2.5,1.9-3.3,3.4c-0.8,1.5-1.2,3.2-1.2,5.2
	s0.4,3.8,1.2,5.2c0.8,1.5,1.9,2.6,3.3,3.4c1.4,0.8,3,1.2,4.8,1.2c2.4,0,4.4-0.7,6-2c1.6-1.3,2.6-3.1,3-5.3h-4.1
	c-0.2,1.2-0.8,2.2-1.6,2.8c-0.9,0.7-2,1-3.3,1c-1.5,0-2.7-0.5-3.7-1.6c-1-1.1-1.5-2.7-1.5-4.8c0-2.1,0.5-3.7,1.5-4.7
	c1-1.1,2.2-1.6,3.7-1.6c1.3,0,2.4,0.3,3.3,1c0.9,0.7,1.4,1.6,1.6,2.8H18.4z M64.1,20.2c1.5,0.8,2.6,1.9,3.4,3.4v0
	c0.8,1.5,1.2,3.2,1.2,5.2c0,2-0.4,3.8-1.2,5.2c-0.8,1.5-2,2.6-3.4,3.4c-1.5,0.8-3.1,1.2-4.9,1.2c-1.8,0-3.4-0.4-4.9-1.2
	c-1.4-0.8-2.6-1.9-3.4-3.4c-0.8-1.5-1.2-3.2-1.2-5.2c0-2,0.4-3.7,1.2-5.2c0.8-1.5,2-2.6,3.4-3.4c1.4-0.8,3.1-1.2,4.9-1.2
	C61.1,19,62.7,19.4,64.1,20.2z M62,34.5c0.8-0.5,1.5-1.2,2-2.1c0.5-0.9,0.8-2.2,0.8-3.5c0-1.4-0.3-2.6-0.8-3.5c-0.5-1-1.2-1.7-2-2.1
	c-0.8-0.5-1.8-0.7-2.8-0.7c-1,0-1.9,0.2-2.8,0.7c-0.8,0.5-1.5,1.2-2,2.1c-0.5,1-0.8,2.1-0.8,3.5c0,1.4,0.3,2.6,0.8,3.5
	c0.5,0.9,1.2,1.7,2,2.1c0.8,0.5,1.8,0.7,2.8,0.7C60.2,35.1,61.2,34.9,62,34.5z M97.4,19.3h-3.9v19.1h3.9V19.3z M93.7,12.1
	c0.5-0.4,1.1-0.7,1.8-0.7c0.7,0,1.3,0.2,1.8,0.7c0.5,0.4,0.7,1,0.7,1.6c0,0.6-0.2,1.2-0.7,1.6c-0.5,0.4-1.2,0.6-1.8,0.6
	c-0.7,0-1.3-0.2-1.8-0.6c-0.5-0.4-0.7-1-0.7-1.6C93,13.1,93.2,12.5,93.7,12.1L93.7,12.1z M112.6,24.8h3.8c0-3.4-3-5.9-7.7-5.9
	c-3.7,0-7.4,1.9-7.4,5.4c0,3.4,2.6,4.2,6.5,5.4c0.1,0,0.2,0.1,0.4,0.1c0.2,0.1,0.5,0.1,0.7,0.2c2.8,0.9,4.2,1.3,4.2,3.1
	c0,1.7-2.3,2.3-4.2,2.3c-2,0-4.4-1.1-4.5-3.2h-4c0,4,3.9,6.4,8.6,6.4c3.8,0,7.8-1.8,7.8-5.3c0-3.8-2.9-4.9-6.9-6
	c-3-0.9-4.7-1.5-4.7-3c0-1.5,1.8-2.4,3.3-2.4C110.6,21.8,112.6,22.8,112.6,24.8z"></path></svg>